<?xml version="1.0" standalone="no"?>
<!DOCTYPE svg PUBLIC "-//W3C//DTD SVG 20010904//EN"
 "http://www.w3.org/TR/2001/REC-SVG-20010904/DTD/svg10.dtd">
<svg version="1.0" xmlns="http://www.w3.org/2000/svg"
 width="512.000000pt" height="512.000000pt" viewBox="0 0 512.000000 512.000000"
 preserveAspectRatio="xMidYMid meet">

<g transform="translate(0.000000,512.000000) scale(0.100000,-0.100000)"
fill="#000000" stroke="none">
<path d="M2325 5030 c-584 -65 -1080 -295 -1489 -690 -405 -391 -657 -893
-737 -1470 -18 -124 -18 -496 0 -620 64 -461 227 -852 510 -1220 89 -117 325
-350 444 -439 364 -272 748 -430 1197 -492 124 -17 496 -18 620 0 322 44 623
142 885 288 1203 671 1636 2166 977 3368 -325 593 -895 1036 -1551 1206 -187
49 -352 70 -576 74 -110 2 -236 0 -280 -5z m1525 -1465 c14 -8 86 -76 162
-152 146 -148 158 -169 143 -250 -6 -34 -112 -143 -963 -995 -852 -851 -961
-957 -995 -963 -93 -17 -65 -41 -669 563 -604 604 -580 576 -563 670 5 31 31
62 153 184 161 160 188 176 266 158 34 -7 89 -58 408 -377 l368 -368 768 768
c619 619 776 770 803 777 39 9 82 4 119 -15z"/>
</g>
</svg>
