<?xml version="1.0" standalone="no"?>
<!DOCTYPE svg PUBLIC "-//W3C//DTD SVG 20010904//EN"
 "http://www.w3.org/TR/2001/REC-SVG-20010904/DTD/svg10.dtd">
<svg version="1.0" xmlns="http://www.w3.org/2000/svg"
 width="576.000000pt" height="512.000000pt" viewBox="0 0 576.000000 512.000000"
 preserveAspectRatio="xMidYMid meet">

<g transform="translate(0.000000,512.000000) scale(0.100000,-0.100000)"
fill="#000000" stroke="none">
<path d="M2869 5097 c-71 -38 -89 -80 -89 -209 0 -108 0 -108 -24 -108 -54 0
-187 -52 -260 -101 -93 -62 -155 -132 -200 -224 -104 -213 -63 -432 113 -605
114 -113 178 -141 556 -240 261 -68 314 -85 333 -106 30 -34 28 -70 -7 -105
l-29 -29 -220 0 c-170 0 -229 3 -262 15 -57 20 -119 19 -155 -4 -16 -10 -78
-65 -138 -122 -105 -101 -107 -105 -107 -148 0 -38 5 -49 39 -81 48 -46 168
-97 278 -119 l81 -16 4 -115 c3 -102 6 -119 27 -149 40 -56 87 -71 232 -71
113 0 130 2 170 23 71 38 89 80 89 210 0 106 0 107 24 107 13 0 55 9 92 21
252 77 424 294 424 537 0 136 -58 263 -170 374 -114 113 -175 139 -555 238
-261 68 -314 85 -332 106 -31 34 -29 70 6 105 l29 29 220 0 c170 0 229 -3 262
-15 57 -20 119 -19 155 3 17 10 78 66 138 123 103 100 107 106 107 146 0 57
-34 95 -125 137 -72 35 -209 76 -251 76 -22 0 -22 4 -26 118 -3 105 -6 121
-27 151 -40 56 -87 71 -232 71 -113 0 -130 -2 -170 -23z"/>
<path d="M1759 1909 c-159 -23 -326 -84 -455 -164 -41 -26 -190 -141 -331
-255 l-257 -209 -308 -3 c-292 -3 -308 -4 -334 -24 -15 -11 -37 -33 -48 -48
-21 -27 -21 -38 -21 -566 0 -528 0 -539 21 -566 11 -15 33 -37 48 -48 l27 -21
1837 -3 c2039 -3 1923 -6 2067 63 54 26 260 185 875 678 443 354 811 655 819
668 47 78 55 105 56 189 0 78 -3 90 -34 148 -60 110 -154 167 -276 166 -126
-1 -132 -5 -680 -444 -539 -432 -589 -466 -733 -495 -61 -13 -176 -15 -722
-13 -637 3 -649 3 -676 24 -53 39 -69 71 -69 134 0 63 16 95 69 134 27 20 43
21 489 26 477 6 488 7 557 48 47 29 102 87 128 137 23 43 27 62 27 135 -1 77
-4 91 -35 148 -36 69 -78 109 -150 144 l-45 23 -895 1 c-492 1 -920 -2 -951
-7z"/>
</g>
</svg>
