<?xml version="1.0" encoding="utf-8"?>
<svg version="1.0" xmlns="http://www.w3.org/2000/svg"
 width="512.000000pt" height="512.000000pt" viewBox="0 0 512.000000 512.000000">

<g transform="translate(0.000000,512.000000) scale(0.100000,-0.100000)"
fill="hsl(0, 0%, 0%, 75%)" stroke="none">
<path d="M2325 5030 c-584 -65 -1081 -295 -1489 -690 -406 -393 -657 -893
-737 -1470 -18 -124 -18 -496 0 -620 80 -577 332 -1079 737 -1470 839 -810
2124 -931 3087 -290 611 406 997 1026 1098 1760 18 125 18 497 1 620 -77 551
-306 1025 -682 1414 -377 390 -870 645 -1405 727 -148 23 -481 33 -610 19z
m-108 -1562 l343 -343 337 337 c223 222 347 339 366 343 66 17 82 6 317 -230
l225 -225 0 -55 0 -55 -340 -340 -340 -340 337 -337 c222 -223 339 -347 343
-366 17 -66 5 -82 -223 -309 -119 -119 -227 -221 -239 -227 -28 -14 -68 -14
-96 0 -12 6 -172 160 -354 342 l-333 332 -337 -337 c-223 -222 -347 -339 -366
-343 -66 -17 -82 -5 -309 223 -119 119 -221 227 -227 239 -15 30 -14 69 3 101
8 15 162 174 343 355 l328 327 -328 328 c-181 180 -335 340 -344 356 -10 19
-13 43 -10 70 5 37 25 60 234 268 l229 228 49 0 49 0 343 -342z"/>
</g>
</svg>
