<?xml version="1.0" standalone="no"?>
<!DOCTYPE svg PUBLIC "-//W3C//DTD SVG 20010904//EN"
 "http://www.w3.org/TR/2001/REC-SVG-20010904/DTD/svg10.dtd">
<svg version="1.0" xmlns="http://www.w3.org/2000/svg"
 width="512.000000pt" height="512.000000pt" viewBox="0 0 512.000000 512.000000"
 preserveAspectRatio="xMidYMid meet">

<g transform="translate(0.000000,512.000000) scale(0.100000,-0.100000)"
fill="#000000" stroke="none">
<path d="M793 4465 c-324 -59 -602 -284 -722 -586 -70 -175 -66 -95 -66 -1314
0 -1019 1 -1106 18 -1175 72 -306 293 -565 578 -679 166 -66 161 -66 731 -66
l518 0 32 33 33 32 0 250 0 250 -33 32 -32 33 -488 5 -487 5 -50 25 c-64 31
-124 91 -155 155 l-25 50 0 1045 0 1045 25 50 c31 64 91 124 155 155 l50 25
487 5 488 5 32 33 33 32 0 250 0 250 -33 32 -32 33 -493 2 c-369 1 -510 -2
-564 -12z"/>
<path d="M3025 4457 c-27 -14 -64 -40 -82 -58 -63 -66 -63 -69 -63 -620 l0
-499 -696 0 c-518 0 -707 -3 -738 -12 -55 -16 -138 -99 -154 -154 -17 -59 -17
-1049 0 -1108 16 -55 99 -138 154 -154 31 -9 220 -12 738 -12 l696 0 0 -498
c0 -573 -1 -562 80 -635 78 -70 173 -85 265 -41 50 23 1766 1741 1792 1793 25
49 24 153 -1 206 -27 57 -1736 1765 -1791 1790 -64 30 -141 30 -200 2z"/>
</g>
</svg>
