<?xml version="1.0" standalone="no"?>
<!DOCTYPE svg PUBLIC "-//W3C//DTD SVG 20010904//EN"
 "http://www.w3.org/TR/2001/REC-SVG-20010904/DTD/svg10.dtd">
<svg version="1.0" xmlns="http://www.w3.org/2000/svg"
 width="512.000000pt" height="512.000000pt" viewBox="0 0 512.000000 512.000000"
 preserveAspectRatio="xMidYMid meet">

<g transform="translate(0.000000,512.000000) scale(0.100000,-0.100000)"
fill="#000000" stroke="none">
<path d="M2441 5104 c-253 -68 -410 -331 -346 -579 67 -256 329 -415 580 -350
256 67 415 329 350 578 -67 259 -333 419 -584 351z"/>
<path d="M975 4495 c-179 -46 -316 -186 -354 -364 -57 -267 122 -526 396 -573
254 -43 501 139 545 400 55 329 -263 621 -587 537z"/>
<path d="M361 3024 c-253 -68 -410 -331 -346 -579 67 -256 329 -415 580 -350
256 67 415 329 350 578 -67 259 -333 419 -584 351z"/>
<path d="M4521 3024 c-253 -68 -410 -331 -346 -579 67 -256 329 -415 580 -350
256 67 415 329 350 578 -67 259 -333 419 -584 351z"/>
<path d="M991 1559 c-74 -14 -168 -65 -230 -124 -152 -145 -192 -362 -103
-555 33 -69 149 -188 215 -218 200 -93 415 -55 562 99 180 189 176 479 -10
665 -116 117 -273 165 -434 133z"/>
<path d="M3909 1552 c-231 -61 -386 -292 -352 -527 40 -281 318 -470 588 -400
88 23 142 53 210 117 203 189 205 501 4 693 -122 117 -286 159 -450 117z"/>
<path d="M2441 944 c-253 -68 -410 -331 -346 -579 67 -256 329 -415 580 -350
256 67 415 329 350 578 -67 259 -333 419 -584 351z"/>
</g>
</svg>
