<?xml version="1.0" encoding="utf-8"?>
<svg viewBox="104.4 112.725 311.8 260.078" xmlns="http://www.w3.org/2000/svg">
  <g>
    <title>MONEY</title>
    <g>
      <title>PAPER</title>
      <rect x="104.412" y="112.725" width="311.761" height="206.1" style="stroke: rgb(0, 0, 0); stroke-width: 0px; fill: rgb(47, 49, 5);"/>
      <rect x="104.4" y="126.774" width="311.8" height="192.02" style="stroke: rgb(0, 0, 0); stroke-width: 0px; fill: rgb(82, 93, 43);"/>
      <path d="M 117.132 194.345 C 145.878 197.025 173.259 164.95 168.505 139.541 L 351.979 139.541 C 349.388 164.597 371.028 194.276 403.422 195.049 L 403.422 248.197 C 372.405 249.309 351.889 273.326 351.25 304.774 L 117.132 304.774 L 117.132 194.345 Z" style="stroke: rgb(0, 0, 0); stroke-width: 0px; fill: rgb(198, 173, 149);"/>
      <ellipse style="stroke: rgb(0, 0, 0); stroke-width: 0px; fill: rgb(82, 93, 43);" cx="260.251" cy="222.129" rx="51.846" ry="68.437"/>
      <path style="stroke: rgb(0, 0, 0); stroke-width: 0px; fill: rgb(198, 173, 149);" d="M 238.431 190.222 C 238.534 190.061 238.707 189.934 238.89 189.877 C 250.445 186.288 260.056 183.415 270.049 180.735 C 270.202 180.694 270.355 180.652 270.512 180.627 C 270.661 180.603 270.889 180.599 271.1 180.588 C 271.634 180.561 272.209 180.465 272.743 180.588 C 272.93 180.631 273.131 180.698 273.26 180.84 C 273.398 180.992 273.465 181.211 273.476 181.416 C 274.697 204.405 273.022 255.889 274.194 256.447 C 274.194 256.447 274.519 257.94 274.992 258.503 C 275.488 259.093 276.97 259.701 276.97 259.701 L 289.466 259.899 C 289.466 259.899 289.972 259.993 290.129 260.173 C 290.277 260.342 290.275 260.602 290.302 260.826 C 290.378 261.455 290.384 262.295 290.28 262.92 C 290.246 263.126 290.229 263.361 290.09 263.516 C 289.945 263.678 289.496 263.782 289.496 263.782 L 240.969 263.866 C 240.969 263.866 240.497 263.9 240.338 263.758 C 240.205 263.638 240.215 263.419 240.19 263.241 C 240.103 262.624 240.124 261.509 240.223 260.894 C 240.259 260.672 240.273 260.411 240.434 260.254 C 240.595 260.097 241.079 260.06 241.079 260.06 L 253.193 259.65 C 253.193 259.65 254.729 258.889 255.29 258.267 C 255.806 257.695 256.299 256.986 256.356 256.218 C 257.834 236.334 258.293 214.351 256.167 193.458 C 256.105 192.846 255.661 192.421 255.198 191.886 C 254.756 191.376 254.233 191.031 253.629 190.947 C 250.078 190.452 242.127 191.41 239.985 191.857 C 239.424 191.974 239.463 191.917 239.226 191.872 C 239.019 191.833 238.838 191.777 238.686 191.631 C 238.51 191.461 238.33 191.065 238.3 190.822 C 238.275 190.619 238.32 190.394 238.431 190.222 Z"/>
    </g>
    <g style="">
      <title>COINS</title>
      <g transform="matrix(1, 0, 0, 1, 0.927159, 109.360344)">
        <path d="M 182.511 226.049 L 195.626 227.499 L 195.393 242.612 L 195.35 242.612 C 195.362 242.814 195.368 243.016 195.368 243.219 C 195.368 254.111 177.701 262.941 155.908 262.941 C 134.222 262.941 116.622 254.198 116.449 243.38 L 116.377 228.067 L 129.209 226.817 L 129.209 228.697 C 136.235 225.468 145.611 223.497 155.908 223.497 C 166.158 223.497 175.495 225.45 182.511 228.653 L 182.511 226.049 Z" style="fill: rgb(187, 107, 45); stroke: rgb(0, 0, 0); stroke-width: 0px;"/>
        <ellipse style="stroke: rgb(0, 0, 0); fill: rgb(192, 142, 59); stroke-width: 0px;" cx="156" cy="228.023" rx="39.655" ry="19.722"/>
      </g>
      <g transform="matrix(1, 0, 0, 1, 0.279377, 82.197723)">
        <path d="M 182.511 226.049 L 195.626 227.499 L 195.393 242.612 L 195.35 242.612 C 195.362 242.814 195.368 243.016 195.368 243.219 C 195.368 254.111 177.701 262.941 155.908 262.941 C 134.222 262.941 116.622 254.198 116.449 243.38 L 116.377 228.067 L 129.209 226.817 L 129.209 228.697 C 136.235 225.468 145.611 223.497 155.908 223.497 C 166.158 223.497 175.495 225.45 182.511 228.653 L 182.511 226.049 Z" style="fill: rgb(187, 107, 45); stroke: rgb(0, 0, 0); stroke-width: 0px;"/>
        <ellipse style="stroke: rgb(0, 0, 0); fill: rgb(192, 142, 59); stroke-width: 0px;" cx="156" cy="228.023" rx="39.655" ry="19.722"/>
      </g>
      <g transform="matrix(1, 0, 0, 1, -0.096242, 55.03511)">
        <path d="M 182.511 226.049 L 195.626 227.499 L 195.393 242.612 L 195.35 242.612 C 195.362 242.814 195.368 243.016 195.368 243.219 C 195.368 254.111 177.701 262.941 155.908 262.941 C 134.222 262.941 116.622 254.198 116.449 243.38 L 116.377 228.067 L 129.209 226.817 L 129.209 228.697 C 136.235 225.468 145.611 223.497 155.908 223.497 C 166.158 223.497 175.495 225.45 182.511 228.653 L 182.511 226.049 Z" style="fill: rgb(187, 107, 45); stroke: rgb(0, 0, 0); stroke-width: 0px;"/>
        <ellipse style="stroke: rgb(0, 0, 0); fill: rgb(192, 142, 59); stroke-width: 0px;" cx="156" cy="228.023" rx="39.655" ry="19.722"/>
      </g>
      <g transform="matrix(1, 0, 0, 1, -0.847482, 27.872492)">
        <path d="M 182.511 226.049 L 195.626 227.499 L 195.393 242.612 L 195.35 242.612 C 195.362 242.814 195.368 243.016 195.368 243.219 C 195.368 254.111 177.701 262.941 155.908 262.941 C 134.222 262.941 116.622 254.198 116.449 243.38 L 116.377 228.067 L 129.209 226.817 L 129.209 228.697 C 136.235 225.468 145.611 223.497 155.908 223.497 C 166.158 223.497 175.495 225.45 182.511 228.653 L 182.511 226.049 Z" style="fill: rgb(187, 107, 45); stroke: rgb(0, 0, 0); stroke-width: 0px;"/>
        <ellipse style="stroke: rgb(0, 0, 0); fill: rgb(192, 142, 59); stroke-width: 0px;" cx="156" cy="228.023" rx="39.655" ry="19.722"/>
      </g>
      <g transform="matrix(1, 0, 0, 1, -0.847482, 0.709874)">
        <path d="M 182.511 226.049 L 195.626 227.499 L 195.393 242.612 L 195.35 242.612 C 195.362 242.814 195.368 243.016 195.368 243.219 C 195.368 254.111 177.701 262.941 155.908 262.941 C 134.222 262.941 116.622 254.198 116.449 243.38 L 116.377 228.067 L 129.209 226.817 L 129.209 228.697 C 136.235 225.468 145.611 223.497 155.908 223.497 C 166.158 223.497 175.495 225.45 182.511 228.653 L 182.511 226.049 Z" style="fill: rgb(187, 107, 45); stroke: rgb(0, 0, 0); stroke-width: 0px;"/>
        <ellipse style="stroke: rgb(0, 0, 0); fill: rgb(192, 142, 59); stroke-width: 0px;" cx="156" cy="228.023" rx="39.655" ry="19.722"/>
      </g>
      <g transform="matrix(1, 0, 0, 1, 92.30278, 109.861626)">
        <path d="M 182.511 226.049 L 195.626 227.499 L 195.393 242.612 L 195.35 242.612 C 195.362 242.814 195.368 243.016 195.368 243.219 C 195.368 254.111 177.701 262.941 155.908 262.941 C 134.222 262.941 116.622 254.198 116.449 243.38 L 116.377 228.067 L 129.209 226.817 L 129.209 228.697 C 136.235 225.468 145.611 223.497 155.908 223.497 C 166.158 223.497 175.495 225.45 182.511 228.653 L 182.511 226.049 Z" style="fill: rgb(187, 107, 45); stroke: rgb(0, 0, 0); stroke-width: 0px;"/>
        <ellipse style="stroke: rgb(0, 0, 0); fill: rgb(192, 142, 59); stroke-width: 0px;" cx="156" cy="228.023" rx="39.655" ry="19.722"/>
      </g>
      <g transform="matrix(1, 0, 0, 1, 117.197182, 96.221336)">
        <path d="M 182.511 226.049 L 195.626 227.499 L 195.393 242.612 L 195.35 242.612 C 195.362 242.814 195.368 243.016 195.368 243.219 C 195.368 254.111 177.701 262.941 155.908 262.941 C 134.222 262.941 116.622 254.198 116.449 243.38 L 116.377 228.067 L 129.209 226.817 L 129.209 228.697 C 136.235 225.468 145.611 223.497 155.908 223.497 C 166.158 223.497 175.495 225.45 182.511 228.653 L 182.511 226.049 Z" style="fill: rgb(187, 107, 45); stroke: rgb(0, 0, 0); stroke-width: 0px;"/>
        <ellipse style="stroke: rgb(0, 0, 0); fill: rgb(192, 142, 59); stroke-width: 0px;" cx="156" cy="228.023" rx="39.655" ry="19.722"/>
      </g>
    </g>
  </g>
</svg>