<?xml version="1.0" encoding="utf-8"?>
<svg viewBox="161.268 185.815 37.85 37.577" xmlns="http://www.w3.org/2000/svg" xmlns:bx="https://boxy-svg.com">
  <g>
    <rect x="183.789" y="198.392" width="5" height="25" style="stroke: rgb(0, 0, 0); stroke-width: 0px; fill: rgb(255, 255, 255);" rx="2.75" ry="2.75" bx:origin="0.467552 0.5"/>
    <rect x="173.618" y="208.359" width="25.5" height="5" style="stroke: rgb(0, 0, 0); stroke-width: 0px; fill: rgb(255, 255, 255);" rx="2.75" ry="2.75" bx:origin="0.494118 0.5"/>
    <path style="stroke: rgb(0, 0, 0); stroke-width: 0px; fill: rgb(16, 73, 139);" d="M 191.362 199.908 C 191.41 198.611 191.824 190.835 190.991 188.816 C 190.394 187.369 188.889 186.21 187.139 185.91 C 186.343 185.774 184.241 185.828 184.241 185.815 L 173.363 185.923 C 173.363 185.923 172.777 185.948 172.503 186.063 C 172.201 186.19 171.777 186.627 171.777 186.627 L 162.036 196.397 C 162.036 196.397 161.627 196.741 161.515 196.994 C 161.406 197.239 161.379 197.867 161.379 197.867 C 161.387 197.867 161.255 209.345 161.269 218.49 C 161.273 220.961 163.779 222.601 164.738 223.101 C 164.965 223.22 165.322 223.297 165.638 223.311 C 168.531 223.442 182.133 223.372 182.282 223.319 C 182.084 222.881 181.588 221.456 181.481 220.809 C 181.452 220.634 169.748 220.771 166.349 220.762 C 165.821 220.76 165.481 220.604 165.283 220.492 C 165.127 220.403 164.956 220.293 164.846 220.182 C 164.656 219.99 164.39 219.656 164.209 219.421 C 164.091 219.268 163.979 218.812 163.966 218.538 C 163.794 214.818 163.948 199.635 164.034 199.317 C 164.034 199.317 164.091 198.838 164.238 198.704 C 164.386 198.568 164.877 198.618 164.877 198.618 L 170.163 198.674 C 170.163 198.674 173.769 198.864 173.914 195.72 C 174.056 192.628 173.852 188.816 174.069 188.646 C 174.084 188.647 174.143 188.526 174.252 188.525 C 175.429 188.514 182.553 188.411 186.189 188.533 C 187.349 188.572 188.186 189.182 188.382 189.804 C 188.655 191.275 188.479 196.305 188.528 196.674 C 189.681 197.193 190.489 198.426 190.947 199.338 C 191.042 199.527 191.123 199.778 191.362 199.908 Z"/>
  </g>
</svg>